<?xml version="1.0" encoding="UTF-8" standalone="no"?>
<!DOCTYPE svg PUBLIC "-//W3C//DTD SVG 1.1//EN"
 "http://www.w3.org/Graphics/SVG/1.1/DTD/svg11.dtd">
<!-- Generated by graphviz version 2.43.0 (0)
 -->
<!-- Title: %3 Pages: 1 -->
<svg width="1056pt" height="332pt"
 viewBox="0.00 0.00 1055.75 332.00" xmlns="http://www.w3.org/2000/svg" xmlns:xlink="http://www.w3.org/1999/xlink">
<g id="graph0" class="graph" transform="scale(1 1) rotate(0) translate(4 328)">
<title>%3</title>
<polygon fill="white" stroke="transparent" points="-4,4 -4,-328 1051.75,-328 1051.75,4 -4,4"/>
<!-- [root] aws_instance.tf_ec2 (expand) -->
<g id="node1" class="node">
<title>[root] aws_instance.tf_ec2 (expand)</title>
<polygon fill="none" stroke="black" points="567.93,-180 409.93,-180 409.93,-144 567.93,-144 567.93,-180"/>
<text text-anchor="middle" x="488.93" y="-158.3" font-family="Times,serif" font-size="14.00">aws_instance.tf_ec2</text>
</g>
<!-- [root] provider[&quot;registry.terraform.io/hashicorp/aws&quot;] -->
<g id="node2" class="node">
<title>[root] provider[&quot;registry.terraform.io/hashicorp/aws&quot;]</title>
<polygon fill="none" stroke="black" points="488.93,-108 163.67,-90 488.93,-72 814.19,-90 488.93,-108"/>
<text text-anchor="middle" x="488.93" y="-86.3" font-family="Times,serif" font-size="14.00">provider[&quot;registry.terraform.io/hashicorp/aws&quot;]</text>
</g>
<!-- [root] aws_instance.tf_ec2 (expand)&#45;&gt;[root] provider[&quot;registry.terraform.io/hashicorp/aws&quot;] -->
<g id="edge1" class="edge">
<title>[root] aws_instance.tf_ec2 (expand)&#45;&gt;[root] provider[&quot;registry.terraform.io/hashicorp/aws&quot;]</title>
<path fill="none" stroke="black" d="M488.93,-143.7C488.93,-135.98 488.93,-126.71 488.93,-118.11"/>
<polygon fill="black" stroke="black" points="492.43,-118.1 488.93,-108.1 485.43,-118.1 492.43,-118.1"/>
</g>
<!-- [root] var.aws&#45;region -->
<g id="node3" class="node">
<title>[root] var.aws&#45;region</title>
<polygon fill="none" stroke="black" points="543.43,-36 428.43,-36 428.43,0 549.43,0 549.43,-30 543.43,-36"/>
<polyline fill="none" stroke="black" points="543.43,-36 543.43,-30 "/>
<polyline fill="none" stroke="black" points="549.43,-30 543.43,-30 "/>
<text text-anchor="middle" x="488.93" y="-14.3" font-family="Times,serif" font-size="14.00">var.aws&#45;region</text>
</g>
<!-- [root] provider[&quot;registry.terraform.io/hashicorp/aws&quot;]&#45;&gt;[root] var.aws&#45;region -->
<g id="edge4" class="edge">
<title>[root] provider[&quot;registry.terraform.io/hashicorp/aws&quot;]&#45;&gt;[root] var.aws&#45;region</title>
<path fill="none" stroke="black" d="M488.93,-71.7C488.93,-63.98 488.93,-54.71 488.93,-46.11"/>
<polygon fill="black" stroke="black" points="492.43,-46.1 488.93,-36.1 485.43,-46.1 492.43,-46.1"/>
</g>
<!-- [root] meta.count&#45;boundary (EachMode fixup) -->
<g id="node4" class="node">
<title>[root] meta.count&#45;boundary (EachMode fixup)</title>
<ellipse fill="none" stroke="black" cx="222.93" cy="-234" rx="222.86" ry="18"/>
<text text-anchor="middle" x="222.93" y="-230.3" font-family="Times,serif" font-size="14.00">[root] meta.count&#45;boundary (EachMode fixup)</text>
</g>
<!-- [root] meta.count&#45;boundary (EachMode fixup)&#45;&gt;[root] aws_instance.tf_ec2 (expand) -->
<g id="edge2" class="edge">
<title>[root] meta.count&#45;boundary (EachMode fixup)&#45;&gt;[root] aws_instance.tf_ec2 (expand)</title>
<path fill="none" stroke="black" d="M284.96,-216.68C323.54,-206.52 373.38,-193.41 414.13,-182.68"/>
<polygon fill="black" stroke="black" points="415.24,-186.01 424.02,-180.08 413.46,-179.24 415.24,-186.01"/>
</g>
<!-- [root] provider[&quot;registry.terraform.io/hashicorp/aws&quot;] (close) -->
<g id="node5" class="node">
<title>[root] provider[&quot;registry.terraform.io/hashicorp/aws&quot;] (close)</title>
<ellipse fill="none" stroke="black" cx="755.93" cy="-234" rx="291.65" ry="18"/>
<text text-anchor="middle" x="755.93" y="-230.3" font-family="Times,serif" font-size="14.00">[root] provider[&quot;registry.terraform.io/hashicorp/aws&quot;] (close)</text>
</g>
<!-- [root] provider[&quot;registry.terraform.io/hashicorp/aws&quot;] (close)&#45;&gt;[root] aws_instance.tf_ec2 (expand) -->
<g id="edge3" class="edge">
<title>[root] provider[&quot;registry.terraform.io/hashicorp/aws&quot;] (close)&#45;&gt;[root] aws_instance.tf_ec2 (expand)</title>
<path fill="none" stroke="black" d="M692.65,-216.41C654.05,-206.29 604.49,-193.3 563.91,-182.66"/>
<polygon fill="black" stroke="black" points="564.63,-179.23 554.07,-180.08 562.86,-186 564.63,-179.23"/>
</g>
<!-- [root] root -->
<g id="node6" class="node">
<title>[root] root</title>
<ellipse fill="none" stroke="black" cx="488.93" cy="-306" rx="58.49" ry="18"/>
<text text-anchor="middle" x="488.93" y="-302.3" font-family="Times,serif" font-size="14.00">[root] root</text>
</g>
<!-- [root] root&#45;&gt;[root] meta.count&#45;boundary (EachMode fixup) -->
<g id="edge5" class="edge">
<title>[root] root&#45;&gt;[root] meta.count&#45;boundary (EachMode fixup)</title>
<path fill="none" stroke="black" d="M445.9,-293.68C405.18,-282.96 343.28,-266.67 295.03,-253.97"/>
<polygon fill="black" stroke="black" points="295.82,-250.56 285.26,-251.4 294.04,-257.33 295.82,-250.56"/>
</g>
<!-- [root] root&#45;&gt;[root] provider[&quot;registry.terraform.io/hashicorp/aws&quot;] (close) -->
<g id="edge6" class="edge">
<title>[root] root&#45;&gt;[root] provider[&quot;registry.terraform.io/hashicorp/aws&quot;] (close)</title>
<path fill="none" stroke="black" d="M531.83,-293.75C572.44,-283.11 634.24,-266.9 682.66,-254.21"/>
<polygon fill="black" stroke="black" points="683.68,-257.56 692.47,-251.64 681.91,-250.79 683.68,-257.56"/>
</g>
</g>
</svg>
